Coordinates
version=1
nRows=5
nColumns=42
inDegrees=yes

Units are S.I. units (second, meters, Newtons, ...)
If the header above contains a line with 'inDegrees', this indicates whether rotational values are in degrees (yes) or radians (no).

endheader
time	pelvis_tilt	pelvis_list	pelvis_rotation	pelvis_tx	pelvis_ty	pelvis_tz	hip_flexion_r	hip_adduction_r	hip_rotation_r	knee_angle_r	knee_adduction_r	knee_angle_r_beta	ankle_angle_r	subtalar_angle_r	mtp_angle_r	hip_flexion_l	hip_adduction_l	hip_rotation_l	knee_angle_l	knee_adduction_l	knee_angle_l_beta	ankle_angle_l	subtalar_angle_l	mtp_angle_l	lumbar_extension	lumbar_bending	lumbar_rotation	arm_flex_r	arm_add_r	arm_rot_r	elbow_flex_r	pro_sup_r	wrist_flex_r	wrist_dev_r	arm_flex_l	arm_add_l	arm_rot_l	elbow_flex_l	pro_sup_l	wrist_flex_l	wrist_dev_l
      1.34000000	      2.89328023	      7.47133574	      6.36241257	     -1.00444843	      0.99934816	      0.32803237	     15.87962525	     -8.36566938	    -37.34198384	     19.86540020	     -8.37506960	      0.34671664	      4.35737180	     30.18460254	     -7.64435588	     -7.81167008	      3.43502312	     -0.27833717	     32.77773775	      0.26099210	      0.57207945	      0.27786711	      5.00562860	     -7.64435588	    -25.57891923	     -8.56106692	     -9.26937939	     -5.66328816	    -10.20763700	     16.27129997	     37.93906142	     90.00000001	      0.00000000	      0.00000000	     15.30101828	    -20.13743293	     11.63454540	     45.38919017	     90.00000001	      0.00000000	      0.00000000
      1.35000000	      2.90988577	      7.48089560	      6.34918592	     -0.99787472	      1.00037066	      0.32978066	     15.22429814	     -8.22084882	    -37.50083499	     19.54261952	     -8.21005892	      0.34108306	      4.71138815	     30.42201310	     -7.64212311	     -6.57759486	      2.93314965	      0.29058007	     35.41550374	      1.07719902	      0.61811715	     -0.69053254	      4.26572072	     -7.64212311	    -25.65861391	     -8.61106467	     -9.09718243	     -4.97632808	    -10.29297177	     16.31456450	     38.18358015	     90.00000001	      0.00000000	      0.00000000	     14.65375310	    -20.28090370	     11.52987713	     45.12343177	     90.00000001	      0.00000000	      0.00000000
      1.36000000	      2.87904873	      7.59523355	      6.30088951	     -0.99150959	      1.00130099	      0.33143395	     14.69083647	     -8.25933479	    -37.67755987	     19.36947164	     -8.02360679	      0.33806105	      5.04185764	     30.87383403	     -7.63294527	     -5.33183225	      2.63569669	      1.67490673	     37.86831953	      2.31638454	      0.66092686	     -2.08555678	      1.65126121	     -7.63294527	    -25.71092567	     -8.79396757	     -8.96732337	     -4.15339098	    -10.47269277	     16.85854030	     38.26920151	     90.00000001	      0.00000000	      0.00000000	     13.94667112	    -20.31780051	     10.88519173	     44.92717173	     90.00000001	      0.00000000	      0.00000000
      1.37000000	      2.91935248	      7.56831427	      6.22353739	     -0.98516673	      1.00205829	      0.33316073	     14.06977258	     -8.07108540	    -37.74401390	     19.10228173	     -7.84818761	      0.33339771	      5.39722649	     30.89121800	     -7.63063409	     -3.98090871	      2.11477356	      2.17973286	     40.46438215	      3.14239389	      0.70623670	     -2.70670349	      1.13414918	     -7.63063409	    -25.79515151	     -8.83066031	     -8.69588612	     -3.40344597	    -10.61924997	     16.88834862	     38.54265082	     90.00000001	      0.00000000	      0.00000000	     13.28564166	    -20.45887769	     10.72691558	     44.71504271	     90.00000001	      0.00000000	      0.00000000
      1.38000000	      3.05380732	      7.64771885	      6.08133749	     -0.97895447	      1.00284032	      0.33479513	     13.38469803	     -8.06415398	    -37.70439685	     18.98859676	     -7.55899660	      0.33141353	      5.66169163	     30.91946273	     -7.62904592	     -2.74843332	      1.76311772	      2.71349776	     42.85164153	      3.91995345	      0.74790223	     -3.15995902	      0.68776862	     -7.62904592	    -26.01665632	     -8.98546072	     -8.33543136	     -2.62850171	    -10.78993757	     16.91553199	     38.78147875	     90.00000001	      0.00000000	      0.00000000	     12.73432838	    -20.56365445	     10.55801634	     44.56160696	     90.00000001	      0.00000000	      0.00000000
